<svg width="12" height="12" viewBox="0 0 12 12" fill="none" xmlns="http://www.w3.org/2000/svg">
<path fill-rule="evenodd" clip-rule="evenodd" d="M6.47142 0.86201C6.21107 0.601661 5.78896 0.601661 5.52861 0.86201C5.26826 1.12236 5.26826 1.54447 5.52861 1.80482L9.05727 5.33348H1.33335C0.965164 5.33348 0.666687 5.63196 0.666687 6.00015C0.666687 6.36834 0.965164 6.66681 1.33335 6.66681H9.05714L5.52861 10.1953C5.26826 10.4557 5.26826 10.8778 5.52861 11.1382C5.78896 11.3985 6.21107 11.3985 6.47142 11.1382L11.1381 6.47149C11.3984 6.21114 11.3984 5.78903 11.1381 5.52868L6.47142 0.86201Z" fill="#1565D8"/>
<path d="M5.52861 0.86201L5.17505 0.508457L5.17505 0.508457L5.52861 0.86201ZM6.47142 0.86201L6.82497 0.508457V0.508457L6.47142 0.86201ZM5.52861 1.80482L5.17505 2.15837L5.17505 2.15837L5.52861 1.80482ZM9.05727 5.33348V5.83348C9.2595 5.83348 9.44182 5.71166 9.51921 5.52482C9.5966 5.33798 9.55382 5.12293 9.41082 4.97993L9.05727 5.33348ZM9.05714 6.66681L9.41069 7.02037C9.55369 6.87737 9.59647 6.66231 9.51908 6.47547C9.44169 6.28863 9.25937 6.16681 9.05714 6.16681V6.66681ZM5.52861 11.1382L5.17505 11.4917L5.52861 11.1382ZM6.47142 11.1382L6.82497 11.4917L6.47142 11.1382ZM11.1381 6.47149L10.7845 6.11793L10.7845 6.11793L11.1381 6.47149ZM11.1381 5.52868L10.7845 5.88223L10.7845 5.88223L11.1381 5.52868ZM5.88216 1.21556C5.94725 1.15048 6.05278 1.15048 6.11786 1.21556L6.82497 0.508457C6.36936 0.0528452 5.63067 0.0528452 5.17505 0.508457L5.88216 1.21556ZM5.88216 1.45127C5.81707 1.38618 5.81707 1.28065 5.88216 1.21556L5.17505 0.508457C4.71944 0.964069 4.71944 1.70276 5.17505 2.15837L5.88216 1.45127ZM9.41082 4.97993L5.88216 1.45127L5.17505 2.15837L8.70371 5.68703L9.41082 4.97993ZM1.33335 5.83348H9.05727V4.83348H1.33335V5.83348ZM1.16669 6.00015C1.16669 5.9081 1.24131 5.83348 1.33335 5.83348V4.83348C0.689021 4.83348 0.166687 5.35581 0.166687 6.00015H1.16669ZM1.33335 6.16681C1.24131 6.16681 1.16669 6.09219 1.16669 6.00015H0.166687C0.166687 6.64448 0.689021 7.16681 1.33335 7.16681V6.16681ZM9.05714 6.16681H1.33335V7.16681H9.05714V6.16681ZM5.88216 10.5489L9.41069 7.02037L8.70358 6.31326L5.17505 9.84179L5.88216 10.5489ZM5.88216 10.7846C5.81707 10.7195 5.81707 10.614 5.88216 10.5489L5.17505 9.84179C4.71944 10.2974 4.71944 11.0361 5.17505 11.4917L5.88216 10.7846ZM6.11786 10.7846C6.05278 10.8497 5.94725 10.8497 5.88216 10.7846L5.17505 11.4917C5.63067 11.9473 6.36936 11.9473 6.82497 11.4917L6.11786 10.7846ZM10.7845 6.11793L6.11786 10.7846L6.82497 11.4917L11.4916 6.82504L10.7845 6.11793ZM10.7845 5.88223C10.8496 5.94732 10.8496 6.05284 10.7845 6.11793L11.4916 6.82504C11.9472 6.36943 11.9472 5.63073 11.4916 5.17512L10.7845 5.88223ZM6.11786 1.21556L10.7845 5.88223L11.4916 5.17512L6.82497 0.508457L6.11786 1.21556Z" fill="#1565D8"/>
</svg>
