<svg width="40" height="41" viewBox="0 0 40 41" fill="none" xmlns="http://www.w3.org/2000/svg">
<path d="M0 11.5097C0 7.69511 0 5.78779 0.730584 4.32566C1.40116 2.98363 2.48925 1.89554 3.83128 1.22497C5.29341 0.494385 7.20073 0.494385 11.0154 0.494385H28.9846C32.7993 0.494385 34.7066 0.494385 36.1687 1.22497C37.5107 1.89554 38.5988 2.98363 39.2694 4.32566C40 5.78779 40 7.69511 40 11.5097V29.479C40 33.2937 40 35.201 39.2694 36.6631C38.5988 38.0051 37.5107 39.0932 36.1687 39.7638C34.7066 40.4944 32.7993 40.4944 28.9846 40.4944H11.0154C7.20072 40.4944 5.29341 40.4944 3.83128 39.7638C2.48925 39.0932 1.40116 38.0051 0.730584 36.6631C0 35.201 0 33.2937 0 29.479V11.5097Z" fill="#FFF9EA"/>
<g clip-path="url(#clip0)">
<path d="M27.9607 10.4238H25.6512V9.26907C25.6512 8.96281 25.5296 8.6691 25.313 8.45254C25.0964 8.23598 24.8027 8.11432 24.4965 8.11432C24.1902 8.11432 23.8965 8.23598 23.6799 8.45254C23.4634 8.6691 23.3417 8.96281 23.3417 9.26907V10.4238H16.4132V9.26907C16.4132 8.96281 16.2915 8.6691 16.075 8.45254C15.8584 8.23598 15.5647 8.11432 15.2585 8.11432C14.9522 8.11432 14.6585 8.23598 14.4419 8.45254C14.2254 8.6691 14.1037 8.96281 14.1037 9.26907V10.4238H11.7942C10.8754 10.4238 9.99429 10.7888 9.34461 11.4385C8.69494 12.0881 8.32996 12.9693 8.32996 13.8881V27.7451C8.32996 28.6639 8.69494 29.545 9.34461 30.1947C9.99429 30.8444 10.8754 31.2093 11.7942 31.2093H27.9607C28.8795 31.2093 29.7606 30.8444 30.4103 30.1947C31.06 29.545 31.425 28.6639 31.425 27.7451V13.8881C31.425 12.9693 31.06 12.0881 30.4103 11.4385C29.7606 10.7888 28.8795 10.4238 27.9607 10.4238ZM29.1155 27.7451C29.1155 28.0513 28.9938 28.3451 28.7773 28.5616C28.5607 28.7782 28.267 28.8998 27.9607 28.8998H11.7942C11.4879 28.8998 11.1942 28.7782 10.9777 28.5616C10.7611 28.3451 10.6395 28.0513 10.6395 27.7451V19.6618H29.1155V27.7451ZM29.1155 17.3523H10.6395V13.8881C10.6395 13.5818 10.7611 13.2881 10.9777 13.0715C11.1942 12.855 11.4879 12.7333 11.7942 12.7333H14.1037V13.8881C14.1037 14.1943 14.2254 14.488 14.4419 14.7046C14.6585 14.9212 14.9522 15.0428 15.2585 15.0428C15.5647 15.0428 15.8584 14.9212 16.075 14.7046C16.2915 14.488 16.4132 14.1943 16.4132 13.8881V12.7333H23.3417V13.8881C23.3417 14.1943 23.4634 14.488 23.6799 14.7046C23.8965 14.9212 24.1902 15.0428 24.4965 15.0428C24.8027 15.0428 25.0964 14.9212 25.313 14.7046C25.5296 14.488 25.6512 14.1943 25.6512 13.8881V12.7333H27.9607C28.267 12.7333 28.5607 12.855 28.7773 13.0715C28.9938 13.2881 29.1155 13.5818 29.1155 13.8881V17.3523Z" fill="#FDB557"/>
</g>
<defs>
<clipPath id="clip0">
<rect width="24" height="24" fill="white" transform="translate(8 8.49438)"/>
</clipPath>
</defs>
</svg>
