<svg width="40" height="41" viewBox="0 0 40 41" fill="none" xmlns="http://www.w3.org/2000/svg">
<path d="M0 11.5097C0 7.69511 0 5.78779 0.730584 4.32566C1.40116 2.98363 2.48925 1.89554 3.83128 1.22497C5.29341 0.494385 7.20073 0.494385 11.0154 0.494385H28.9846C32.7993 0.494385 34.7066 0.494385 36.1687 1.22497C37.5107 1.89554 38.5988 2.98363 39.2694 4.32566C40 5.78779 40 7.69511 40 11.5097V29.479C40 33.2937 40 35.201 39.2694 36.6631C38.5988 38.0051 37.5107 39.0932 36.1687 39.7638C34.7066 40.4944 32.7993 40.4944 28.9846 40.4944H11.0154C7.20072 40.4944 5.29341 40.4944 3.83128 39.7638C2.48925 39.0932 1.40116 38.0051 0.730584 36.6631C0 35.201 0 33.2937 0 29.479V11.5097Z" fill="#00CFDE" fill-opacity="0.1"/>
<g clip-path="url(#clip0)">
<path d="M20.1249 8.49438C13.4291 8.49438 8 13.9235 8 20.6193C8 27.315 13.4291 32.7442 20.1249 32.7442C26.8206 32.7442 32.2498 27.315 32.2498 20.6193C32.2498 13.9235 26.8206 8.49438 20.1249 8.49438ZM20.1249 30.6873C14.5658 30.6873 10.0569 26.1783 10.0569 20.6193C10.0569 15.0602 14.5658 10.5513 20.1249 10.5513C25.6839 10.5513 30.1929 15.0602 30.1929 20.6193C30.1929 26.1783 25.6839 30.6873 20.1249 30.6873Z" fill="#00CFDE"/>
<path d="M19 15.7935C19 16.138 19.1369 16.4685 19.3805 16.7121C19.6241 16.9557 19.9546 17.0926 20.2991 17.0926C20.6436 17.0926 20.9741 16.9557 21.2177 16.7121C21.4613 16.4685 21.5982 16.138 21.5982 15.7935C21.5982 15.4489 21.4613 15.1185 21.2177 14.8749C20.9741 14.6313 20.6436 14.4944 20.2991 14.4944C19.9546 14.4944 19.6241 14.6313 19.3805 14.8749C19.1369 15.1185 19 15.4489 19 15.7935ZM20.9486 18.8247H19.6495C19.5305 18.8247 19.433 18.9221 19.433 19.0412V26.4028C19.433 26.5218 19.5305 26.6193 19.6495 26.6193H20.9486C21.0677 26.6193 21.1652 26.5218 21.1652 26.4028V19.0412C21.1652 18.9221 21.0677 18.8247 20.9486 18.8247Z" fill="#00CFDE"/>
</g>
<defs>
<clipPath id="clip0">
<rect width="24" height="24" fill="white" transform="translate(8 8.49438)"/>
</clipPath>
</defs>
</svg>
