<svg width="25" height="24" viewBox="0 0 25 24" fill="none" xmlns="http://www.w3.org/2000/svg">
<path d="M12.3301 14C13.4346 14 14.3301 13.1046 14.3301 12C14.3301 10.8954 13.4346 10 12.3301 10C11.2255 10 10.3301 10.8954 10.3301 12C10.3301 13.1046 11.2255 14 12.3301 14Z" fill="#1D2B4F"/>
<path d="M19.3301 14C20.4346 14 21.3301 13.1046 21.3301 12C21.3301 10.8954 20.4346 10 19.3301 10C18.2255 10 17.3301 10.8954 17.3301 12C17.3301 13.1046 18.2255 14 19.3301 14Z" fill="#1D2B4F"/>
<path d="M5.33008 14C6.43465 14 7.33008 13.1046 7.33008 12C7.33008 10.8954 6.43465 10 5.33008 10C4.22551 10 3.33008 10.8954 3.33008 12C3.33008 13.1046 4.22551 14 5.33008 14Z" fill="#1D2B4F"/>
</svg>
