<svg width="40" height="41" viewBox="0 0 40 41" fill="none" xmlns="http://www.w3.org/2000/svg">
<rect y="0.494385" width="40" height="40" rx="8" fill="#E9FFF4"/>
<path d="M27.6997 15.2584L22.656 10.2147C22.5154 10.0741 22.3255 9.99438 22.1263 9.99438H12.17C11.7552 9.99438 11.42 10.3295 11.42 10.7444V30.2444C11.42 30.6592 11.7552 30.9944 12.17 30.9944H27.17C27.5849 30.9944 27.92 30.6592 27.92 30.2444V15.7905C27.92 15.5913 27.8404 15.3991 27.6997 15.2584ZM26.1904 16.135H21.7794V11.7241L26.1904 16.135ZM26.2325 29.3069H13.1075V11.6819H20.1857V16.7444C20.1857 17.0055 20.2894 17.2558 20.474 17.4404C20.6586 17.625 20.909 17.7288 21.17 17.7288H26.2325V29.3069ZM19.4825 22.9788H15.17C15.0669 22.9788 14.9825 23.0631 14.9825 23.1663V24.2913C14.9825 24.3944 15.0669 24.4788 15.17 24.4788H19.4825C19.5857 24.4788 19.67 24.3944 19.67 24.2913V23.1663C19.67 23.0631 19.5857 22.9788 19.4825 22.9788ZM14.9825 19.9788V21.1038C14.9825 21.2069 15.0669 21.2913 15.17 21.2913H24.17C24.2732 21.2913 24.3575 21.2069 24.3575 21.1038V19.9788C24.3575 19.8756 24.2732 19.7913 24.17 19.7913H15.17C15.0669 19.7913 14.9825 19.8756 14.9825 19.9788Z" fill="#45DB91"/>
</svg>
