<svg width="24" height="24" viewBox="0 0 24 24" fill="none" xmlns="http://www.w3.org/2000/svg">
<path d="M13.875 21C13.6253 21 13.3905 20.8755 13.251 20.6663L11.9738 18.75H10.5C10.086 18.75 9.75 18.414 9.75 18C9.75 17.586 10.086 17.25 10.5 17.25H12.375C12.6255 17.25 12.8595 17.3753 12.999 17.5838L13.782 18.7583L15.4538 15.414C15.5768 15.1695 15.822 15.0105 16.0958 15C16.3868 14.9932 16.6268 15.129 16.7678 15.363L18.7996 18.75H20.2501C20.6641 18.75 21.0001 19.086 21.0001 19.5C21.0001 19.914 20.6641 20.25 20.2501 20.25H18.3751C18.1118 20.25 17.8673 20.112 17.7323 19.8863L16.185 17.3078L14.5463 20.586C14.4263 20.8253 14.1885 20.9828 13.9215 20.9993C13.9065 21 13.8908 21 13.875 21Z" fill="white"/>
<path d="M9.75003 10.5001C11.8211 10.5001 13.5001 8.82111 13.5001 6.75003C13.5001 4.67894 11.8211 3 9.75003 3C7.67894 3 6 4.67894 6 6.75003C6 8.82111 7.67894 10.5001 9.75003 10.5001Z" fill="white"/>
<path d="M8.25004 18.0002C8.25004 16.7597 9.25955 15.7502 10.5001 15.7502H12.3751C12.7643 15.7502 13.1393 15.8499 13.4686 16.0329L14.1128 14.7436C14.4406 14.0904 15.0646 13.6621 15.7733 13.5481C15.0908 12.6144 13.9958 12.0001 12.7501 12.0001H6.75003C4.67926 12.0001 3 13.6794 3 15.7502V18.1877C3 18.4982 3.252 18.7502 3.5625 18.7502H8.38804C8.30404 18.5147 8.25004 18.2642 8.25004 18.0002Z" fill="white"/>
</svg>
